<?xml version="1.0" encoding="UTF-8" standalone="no"?>
<svg
   xmlns:dc="http://purl.org/dc/elements/1.1/"
   xmlns:cc="http://creativecommons.org/ns#"
   xmlns:rdf="http://www.w3.org/1999/02/22-rdf-syntax-ns#"
   xmlns:svg="http://www.w3.org/2000/svg"
   xmlns="http://www.w3.org/2000/svg"
   xmlns:sodipodi="http://sodipodi.sourceforge.net/DTD/sodipodi-0.dtd"
   xmlns:inkscape="http://www.inkscape.org/namespaces/inkscape"
   version="1.1"
   viewBox="0 0 276 276"
   width="276"
   height="276"
   id="svg4"
   sodipodi:docname="cullax.svg"
   inkscape:version="0.92.3 (2405546, 2018-03-11)">
  <metadata
     id="metadata10">
    <rdf:RDF>
      <cc:Work
         rdf:about="">
        <dc:format>image/svg+xml</dc:format>
        <dc:type
           rdf:resource="http://purl.org/dc/dcmitype/StillImage" />
        <dc:title />
      </cc:Work>
    </rdf:RDF>
  </metadata>
  <defs
     id="defs8">
    <inkscape:perspective
       sodipodi:type="inkscape:persp3d"
       inkscape:vp_x="0 : 128 : 1"
       inkscape:vp_y="0 : 1000 : 0"
       inkscape:vp_z="256 : 128 : 1"
       inkscape:persp3d-origin="128 : 85.333333 : 1"
       id="perspective827" />
  </defs>
  <sodipodi:namedview
     pagecolor="#ffffff"
     bordercolor="#666666"
     borderopacity="1"
     objecttolerance="10"
     gridtolerance="10"
     guidetolerance="10"
     inkscape:pageopacity="0"
     inkscape:pageshadow="2"
     inkscape:window-width="640"
     inkscape:window-height="480"
     id="namedview6"
     showgrid="false"
     inkscape:pagecheckerboard="true"
     inkscape:showpageshadow="false"
     fit-margin-top="10"
     fit-margin-left="10"
     fit-margin-right="10"
     fit-margin-bottom="10"
     inkscape:zoom="7.4467184"
     inkscape:cx="140.9"
     inkscape:cy="139.52846"
     inkscape:current-layer="svg4" />
  <g
     id="g863"
     transform="matrix(0.1875,0,0,0.1875,186.42091,76.44922)"
     inkscape:export-xdpi="96"
     inkscape:export-ydpi="96">
    <rect
       y="190.57253"
       x="-400.18118"
       height="256"
       width="256"
       id="rect843"
       style="opacity:1;fill:none;fill-opacity:1;stroke:none;stroke-width:1.07690954;stroke-linecap:round;stroke-miterlimit:4;stroke-dasharray:none" />
    <g
       transform="translate(0,18.531662)"
       id="g857">
      <rect
         y="214.74423"
         x="-388.36389"
         height="170.59325"
         width="232.36543"
         id="rect845"
         style="opacity:1;fill:#5fbcd3;fill-opacity:1;stroke:#226a7c;stroke-width:4;stroke-linecap:round;stroke-miterlimit:4;stroke-dasharray:none;stroke-opacity:1"
         ry="16.562836" />
      <path
         style="fill:#d7eef4;stroke-width:0.51990885"
         d="m -278.37643,245.01328 v 11.21562 c -4.59339,1.10065 -8.98666,2.91497 -13.01803,5.37883 l -7.92048,-7.91948 -14.88644,14.88645 7.93368,7.93369 c -2.46687,4.02638 -4.28634,8.41606 -5.39203,13.00685 h -11.21561 v 21.05226 h 11.21459 c 1.10019,4.59504 2.91578,8.98868 5.37984,13.02005 l -7.92047,7.92049 14.88644,14.88646 7.93469,-7.93472 c 4.02639,2.46687 8.41506,4.28634 13.00586,5.39203 v 11.21663 h 21.05225 v -11.21562 c 4.59468,-1.10028 8.98818,-2.91485 13.01903,-5.37882 l 7.9215,7.9205 14.88646,-14.88646 -1.71103,-1.71103 -21.30103,-20.56179 a 25.113156,25.113156 0 0 1 -23.34309,15.91814 25.113156,25.113156 0 0 1 -25.11303,-25.11199 25.113156,25.113156 0 0 1 25.11303,-25.11403 25.113156,25.113156 0 0 1 23.56649,16.49898 l 14.87934,-14.91185 c -0.004,-0.006 -0.007,-0.0129 -0.0112,-0.0193 l 7.92862,-7.9144 -14.89051,-14.88645 -7.9337,7.93369 c -4.0267,-2.46696 -8.41554,-4.28643 -13.00685,-5.39202 v -11.21566 h -21.05226 z"
         id="path2"
         inkscape:connector-curvature="0" />
    </g>
  </g>
</svg>
