<?xml version="1.0" encoding="UTF-8" standalone="no"?>
<!-- Created with Inkscape (http://www.inkscape.org/) -->

<svg
   xmlns:dc="http://purl.org/dc/elements/1.1/"
   xmlns:cc="http://creativecommons.org/ns#"
   xmlns:rdf="http://www.w3.org/1999/02/22-rdf-syntax-ns#"
   xmlns:svg="http://www.w3.org/2000/svg"
   xmlns="http://www.w3.org/2000/svg"
   xmlns:sodipodi="http://sodipodi.sourceforge.net/DTD/sodipodi-0.dtd"
   xmlns:inkscape="http://www.inkscape.org/namespaces/inkscape"
   width="38.644501"
   height="19.04471"
   viewBox="0 0 38.644501 19.044711"
   version="1.1"
   id="svg104"
   inkscape:version="0.92.3 (2405546, 2018-03-11)"
   sodipodi:docname="bar_meter_horizontal.svg">
  <sodipodi:namedview
     id="base"
     pagecolor="#ffffff"
     bordercolor="#666666"
     borderopacity="1.0"
     inkscape:pageopacity="0.0"
     inkscape:pageshadow="2"
     inkscape:zoom="22.4"
     inkscape:cx="13.618889"
     inkscape:cy="11.247101"
     inkscape:document-units="px"
     inkscape:current-layer="layer1"
     showgrid="false"
     inkscape:pagecheckerboard="true"
     inkscape:showpageshadow="false"
     units="px"
     inkscape:window-width="1848"
     inkscape:window-height="967"
     inkscape:window-x="72"
     inkscape:window-y="30"
     inkscape:window-maximized="1"
     fit-margin-top="5"
     fit-margin-left="5"
     fit-margin-right="5"
     fit-margin-bottom="5" />
  <defs
     id="defs98" />
  <style
     id="current-color-scheme"
     type="text/css">
      .ColorScheme-Text {
      }
      .ColorScheme-Background{
      }
      .ColorScheme-Highlight{
      }
      .ColorScheme-ViewText {
      }
      .ColorScheme-ViewBackground{
      }
      .ColorScheme-ViewHover {
      }
      .ColorScheme-ViewFocus{
      }
      .ColorScheme-ButtonText {
      }
      .ColorScheme-ButtonBackground{
      }
      .ColorScheme-ButtonHover {
      }
      .ColorScheme-ButtonFocus{
      }
  </style>
  <metadata
     id="metadata101">
    <rdf:RDF>
      <cc:Work
         rdf:about="">
        <dc:format>image/svg+xml</dc:format>
        <dc:type
           rdf:resource="http://purl.org/dc/dcmitype/StillImage" />
        <dc:title />
      </cc:Work>
    </rdf:RDF>
  </metadata>
  <g
     inkscape:label="Layer 1"
     inkscape:groupmode="layer"
     id="layer1"
     transform="translate(-236.57061,-781.59105)">
    <g
       id="bar-inactive-topleft"
       transform="translate(162.99748,176.06767)">
      <rect
         style="fill:none;stroke-width:0.03392507"
         y="610.52344"
         x="98.215981"
         height="3"
         width="3"
         id="rect3795" />
      <path
         inkscape:connector-curvature="0"
         class="ColorScheme-ViewHover"
         id="QQA"
         d="m 101.2168,612.02344 a 2.9999998,2.9999998 0 0 0 -2.597659,1.5 h 2.597659 z"
         style="fill:currentColor;stroke-width:0.03392507" />
    </g>
    <g
       id="bar-inactive-left"
       transform="translate(162.99748,176.06767)">
      <rect
         id="rect3803"
         width="3"
         height="3"
         x="98.215981"
         y="613.52344"
         style="fill:none;stroke-width:0.03392507" />
      <path
         inkscape:connector-curvature="0"
         class="ColorScheme-ViewHover"
         id="QQD"
         d="m 98.619141,613.52344 a 2.9999998,2.9999998 0 0 0 -0.402344,1.57226 2.9999998,2.9999998 0 0 0 0.402344,1.42774 h 2.597659 v -1.5 -1.5 z"
         style="fill:currentColor;stroke-width:0.03392507" />
    </g>
    <g
       id="bar-inactive-bottomleft"
       transform="translate(162.99748,176.06767)">
      <rect
         id="rect3809"
         width="3"
         height="3"
         x="98.215981"
         y="616.52344"
         style="fill:none;stroke-width:0.03392507" />
      <path
         inkscape:connector-curvature="0"
         class="ColorScheme-ViewHover"
         id="QQF"
         d="m 98.619141,616.52344 a 2.9999998,2.9999998 0 0 0 2.597659,1.5 v -1.5 z"
         style="fill:currentColor;stroke-width:0.03392507" />
    </g>
    <g
       id="bar-inactive-topright"
       transform="matrix(-1,0,0,1,368.43109,176.06761)">
      <rect
         id="rect3815"
         width="3"
         height="3"
         x="98.215981"
         y="610.52344"
         style="fill:none;stroke-width:0.03392507" />
      <path
         style="fill:currentColor;stroke-width:0.03392507"
         d="m 101.2168,612.02344 a 2.9999998,2.9999998 0 0 0 -2.597659,1.5 h 2.597659 z"
         class="ColorScheme-ViewHover"
         id="QQC"
         inkscape:connector-curvature="0" />
    </g>
    <g
       id="bar-inactive-right"
       transform="matrix(-1,0,0,1,368.43027,176.06761)">
      <rect
         style="fill:none;stroke-width:0.03392507"
         y="613.52344"
         x="98.215981"
         height="3"
         width="3"
         id="rect3821" />
      <path
         style="fill:currentColor;stroke-width:0.03392507"
         d="m 98.619141,613.52344 a 2.9999998,2.9999998 0 0 0 -0.402344,1.57226 2.9999998,2.9999998 0 0 0 0.402344,1.42774 h 2.597659 v -1.5 -1.5 z"
         class="ColorScheme-ViewHover"
         id="QQE"
         inkscape:connector-curvature="0" />
    </g>
    <g
       id="bar-inactive-bottomright"
       transform="matrix(-1,0,0,1,368.43027,176.06761)">
      <rect
         style="fill:none;stroke-width:0.03392507"
         y="616.52344"
         x="98.215981"
         height="3"
         width="3"
         id="rect3827" />
      <path
         style="fill:currentColor;stroke-width:0.03392507"
         d="m 98.619141,616.52344 a 2.9999998,2.9999998 0 0 0 2.597659,1.5 v -1.5 z"
         class="ColorScheme-ViewHover"
         id="QQH"
         inkscape:connector-curvature="0" />
    </g>
    <g
       id="bar-inactive-top"
       transform="translate(161.45787,177.81041)">
      <rect
         id="rect3835"
         width="3"
         height="3"
         x="102.75642"
         y="608.7807"
         style="fill:none;stroke-width:0.03392507" />
      <rect
         id="QQB"
         class="ColorScheme-ViewHover"
         width="3"
         height="1.5"
         x="102.75642"
         y="610.2807"
         style="fill:currentColor;stroke-width:0.02398865" />
    </g>
    <g
       transform="matrix(1,0,0,-1,161.45705,1404.3717)"
       id="bar-inactive-bottom">
      <rect
         style="fill:none;stroke-width:0.03392507"
         y="608.7807"
         x="102.75642"
         height="3"
         width="3"
         id="rect3841" />
      <rect
         style="fill:currentColor;stroke-width:0.02398865"
         class="ColorScheme-ViewHover"
         y="610.2807"
         x="102.75642"
         height="1.5"
         width="3"
         id="QQG" />
    </g>
    <rect
       style="fill:currentColor;stroke-width:0.03392507"
       class="ColorScheme-ViewHover"
       y="789.59106"
       x="264.21344"
       height="3"
       width="3"
       id="bar-inactive-center" />
    <g
       id="bar-active-topleft"
       transform="translate(143.35463,176.11232)">
      <rect
         style="fill:none;stroke-width:0.03392507"
         y="610.52344"
         x="98.215981"
         height="3"
         width="3"
         id="rect93" />
      <path
         inkscape:connector-curvature="0"
         class="ColorScheme-ButtonHover"
         id="AAA"
         d="m 101.2168,612.02344 a 2.9999998,2.9999998 0 0 0 -2.597659,1.5 h 2.597659 z"
         style="fill:currentColor;stroke-width:0.03392507" />
    </g>
    <g
       id="bar-active-left"
       transform="translate(143.35463,176.11232)">
      <rect
         id="rect99"
         width="3"
         height="3"
         x="98.215981"
         y="613.52344"
         style="fill:none;stroke-width:0.03392507" />
      <path
         inkscape:connector-curvature="0"
         class="ColorScheme-ButtonHover"
         id="AAD"
         d="m 98.619141,613.52344 a 2.9999998,2.9999998 0 0 0 -0.402344,1.57226 2.9999998,2.9999998 0 0 0 0.402344,1.42774 h 2.597659 v -1.5 -1.5 z"
         style="fill:currentColor;stroke-width:0.03392507" />
    </g>
    <g
       id="bar-active-bottomleft"
       transform="translate(143.35463,176.11232)">
      <rect
         id="rect105"
         width="3"
         height="3"
         x="98.215981"
         y="616.52344"
         style="fill:none;stroke-width:0.03392507" />
      <path
         inkscape:connector-curvature="0"
         class="ColorScheme-ButtonHover"
         id="AAF"
         d="m 98.619141,616.52344 a 2.9999998,2.9999998 0 0 0 2.597659,1.5 v -1.5 z"
         style="fill:currentColor;stroke-width:0.03392507" />
    </g>
    <g
       id="bar-active-topright"
       transform="matrix(-1,0,0,1,348.78823,176.11226)">
      <rect
         id="rect111"
         width="3"
         height="3"
         x="98.215981"
         y="610.52344"
         style="fill:none;stroke-width:0.03392507" />
      <path
         style="fill:currentColor;stroke-width:0.03392507"
         d="m 101.2168,612.02344 a 2.9999998,2.9999998 0 0 0 -2.597659,1.5 h 2.597659 z"
         class="ColorScheme-ButtonHover"
         id="AAC"
         inkscape:connector-curvature="0" />
    </g>
    <g
       id="bar-active-right"
       transform="matrix(-1,0,0,1,348.78741,176.11226)">
      <rect
         style="fill:none;stroke-width:0.03392507"
         y="613.52344"
         x="98.215981"
         height="3"
         width="3"
         id="rect117" />
      <path
         style="fill:currentColor;stroke-width:0.03392507"
         d="m 98.619141,613.52344 a 2.9999998,2.9999998 0 0 0 -0.402344,1.57226 2.9999998,2.9999998 0 0 0 0.402344,1.42774 h 2.597659 v -1.5 -1.5 z"
         class="ColorScheme-ButtonHover"
         id="AAE"
         inkscape:connector-curvature="0" />
    </g>
    <g
       id="bar-active-bottomright"
       transform="matrix(-1,0,0,1,348.78741,176.11226)">
      <rect
         style="fill:none;stroke-width:0.03392507"
         y="616.52344"
         x="98.215981"
         height="3"
         width="3"
         id="rect123" />
      <path
         style="fill:currentColor;stroke-width:0.03392507"
         d="m 98.619141,616.52344 a 2.9999998,2.9999998 0 0 0 2.597659,1.5 v -1.5 z"
         class="ColorScheme-ButtonHover"
         id="AAH"
         inkscape:connector-curvature="0" />
    </g>
    <g
       id="bar-active-top"
       transform="translate(141.81501,177.85506)">
      <rect
         id="rect129"
         width="3"
         height="3"
         x="102.75642"
         y="608.7807"
         style="fill:none;stroke-width:0.03392507" />
      <rect
         id="AAB"
         class="ColorScheme-ButtonHover"
         width="3"
         height="1.5"
         x="102.75642"
         y="610.2807"
         style="fill:currentColor;stroke-width:0.02398865" />
    </g>
    <g
       transform="matrix(1,0,0,-1,141.81419,1404.4164)"
       id="bar-active-bottom">
      <rect
         style="fill:none;stroke-width:0.03392507"
         y="608.7807"
         x="102.75642"
         height="3"
         width="3"
         id="rect135" />
      <rect
         style="fill:currentColor;stroke-width:0.02398865"
         class="ColorScheme-ButtonHover"
         y="610.2807"
         x="102.75642"
         height="1.5"
         width="3"
         id="AAG" />
    </g>
    <rect
       style="fill:currentColor;stroke-width:0.03392507"
       class="ColorScheme-ButtonHover"
       y="789.63568"
       x="244.57063"
       height="3"
       width="3"
       id="bar-active-center" />
    <rect
       style="fill:#808000;stroke-width:2.37983274"
       id="hint-bar-size"
       width="8"
       height="8"
       x="251.74919"
       y="791.83215" />
  </g>
</svg>
