<?xml version="1.0" encoding="UTF-8" standalone="no"?>
<!-- Created with Inkscape (http://www.inkscape.org/) -->

<svg
   xmlns:dc="http://purl.org/dc/elements/1.1/"
   xmlns:cc="http://creativecommons.org/ns#"
   xmlns:rdf="http://www.w3.org/1999/02/22-rdf-syntax-ns#"
   xmlns:svg="http://www.w3.org/2000/svg"
   xmlns="http://www.w3.org/2000/svg"
   xmlns:xlink="http://www.w3.org/1999/xlink"
   xmlns:sodipodi="http://sodipodi.sourceforge.net/DTD/sodipodi-0.dtd"
   xmlns:inkscape="http://www.inkscape.org/namespaces/inkscape"
   width="264"
   height="264"
   viewBox="0 0 264 264.00001"
   version="1.1"
   id="svg8"
   inkscape:version="0.92.3 (2405546, 2018-03-11)"
   sodipodi:docname="clock.svg">
  <defs
     id="defs2">
    <linearGradient
       inkscape:collect="always"
       id="linearGradient950">
      <stop
         style="stop-color:#0b0b0b;stop-opacity:1"
         offset="0"
         id="stop946" />
      <stop
         id="stop954"
         offset="0.74612164"
         style="stop-color:#000000;stop-opacity:0.80172414" />
      <stop
         style="stop-color:#000000;stop-opacity:0;"
         offset="1"
         id="stop948" />
    </linearGradient>
    <radialGradient
       inkscape:collect="always"
       xlink:href="#linearGradient950"
       id="radialGradient952"
       cx="-86.059532"
       cy="22.47023"
       fx="-86.059532"
       fy="22.47023"
       r="114.90309"
       gradientUnits="userSpaceOnUse" />
  </defs>
  <style
     id="current-color-scheme"
     type="text/css">
      .ColorScheme-Text {
      }
      .ColorScheme-Background{
      }
      .ColorScheme-Highlight{
      }
      .ColorScheme-ViewText {
      }
      .ColorScheme-ViewBackground{
      }
      .ColorScheme-ViewHover {
      }
      .ColorScheme-ViewFocus{
      }
      .ColorScheme-ButtonText {
      }
      .ColorScheme-ButtonBackground{
      }
      .ColorScheme-ButtonHover {
      }
      .ColorScheme-ButtonFocus{
      }
  </style>
  <sodipodi:namedview
     id="base"
     pagecolor="#ffffff"
     bordercolor="#666666"
     borderopacity="1.0"
     inkscape:pageopacity="0.0"
     inkscape:pageshadow="2"
     inkscape:zoom="13.936592"
     inkscape:cx="563.1034"
     inkscape:cy="159.02193"
     inkscape:document-units="px"
     inkscape:current-layer="layer1"
     showgrid="false"
     units="px"
     inkscape:showpageshadow="false"
     inkscape:pagecheckerboard="true"
     fit-margin-top="20"
     fit-margin-left="20"
     fit-margin-right="20"
     fit-margin-bottom="20"
     inkscape:snap-global="false"
     showguides="true"
     inkscape:guide-bbox="true">
    <sodipodi:guide
       position="236.78673,132.60058"
       orientation="0,1"
       id="guide926"
       inkscape:locked="false" />
    <sodipodi:guide
       position="397.65821,129.29991"
       orientation="0,1"
       id="guide948"
       inkscape:locked="false" />
  </sodipodi:namedview>
  <metadata
     id="metadata5">
    <rdf:RDF>
      <cc:Work
         rdf:about="">
        <dc:format>image/svg+xml</dc:format>
        <dc:type
           rdf:resource="http://purl.org/dc/dcmitype/StillImage" />
        <dc:title />
      </cc:Work>
    </rdf:RDF>
  </metadata>
  <g
     inkscape:label="Layer 1"
     inkscape:groupmode="layer"
     id="layer1"
     transform="translate(218.05953,109.52977)">
    <g
       id="ClockFace">
      <g
         id="g910">
        <circle
           r="114.90309"
           cy="22.47023"
           cx="-86.059532"
           id="circle944"
           class="ColorScheme-Background"
           style="opacity:1;fill:url(#radialGradient952);fill-opacity:1;stroke:none;stroke-width:0.69654548;stroke-linecap:round;stroke-miterlimit:4;stroke-dasharray:none" />
        <circle
           style="opacity:1;fill:currentColor;fill-opacity:1;stroke:none;stroke-width:0.66134828;stroke-linecap:round;stroke-miterlimit:4;stroke-dasharray:none"
           class="ColorScheme-Background"
           id="dial"
           cx="-86.059532"
           cy="22.47023"
           r="109.09692" />
        <g
           id="g1245"
           transform="translate(0.34488223,-0.3129854)">
          <g
             transform="translate(0.3,-0.7)"
             id="xxb"
             style="font-style:normal;font-variant:normal;font-weight:300;font-stretch:normal;font-size:24px;line-height:1.25;font-family:'Sinkin Sans';-inkscape-font-specification:'Sinkin Sans, Light';font-variant-ligatures:normal;font-variant-caps:normal;font-variant-numeric:normal;font-feature-settings:normal;text-align:start;letter-spacing:0px;word-spacing:0px;writing-mode:lr-tb;text-anchor:start;fill:currentColor;fill-opacity:1;stroke:none"
             class="ColorScheme-ButtonHover"
             aria-label="1">
            <path
               inkscape:connector-curvature="0"
               id="path939"
               style="font-style:normal;font-variant:normal;font-weight:300;font-stretch:normal;font-size:24px;font-family:'Sinkin Sans';-inkscape-font-specification:'Sinkin Sans, Light';font-variant-ligatures:normal;font-variant-caps:normal;font-variant-numeric:normal;font-feature-settings:normal;text-align:start;writing-mode:lr-tb;text-anchor:start"
               d="m -41.037977,-61.108175 h -1.44 l -4.584,4.584 0.984,1.008 2.232,-2.256 1.224,-1.584 h 0.048 l -0.144,1.8 v 15.888 h 1.68 z" />
          </g>
          <g
             id="xxc"
             class="ColorScheme-ButtonHover"
             style="font-style:normal;font-variant:normal;font-weight:300;font-stretch:normal;font-size:24px;line-height:1.25;font-family:'Sinkin Sans';-inkscape-font-specification:'Sinkin Sans, Light';font-variant-ligatures:normal;font-variant-caps:normal;font-variant-numeric:normal;font-feature-settings:normal;text-align:start;letter-spacing:0px;word-spacing:0px;writing-mode:lr-tb;text-anchor:start;fill:currentColor;fill-opacity:1;stroke:none"
             aria-label="2">
            <path
               inkscape:connector-curvature="0"
               id="path942"
               style="font-style:normal;font-variant:normal;font-weight:300;font-stretch:normal;font-size:24px;font-family:'Sinkin Sans';-inkscape-font-specification:'Sinkin Sans, Light';font-variant-ligatures:normal;font-variant-caps:normal;font-variant-numeric:normal;font-feature-settings:normal;text-align:start;writing-mode:lr-tb;text-anchor:start"
               d="m -5.5859087,-25.106937 c 0,-2.52 -1.752,-5.184 -6.3600003,-5.184 -2.64,0 -4.776,0.96 -6.312,2.712 l 1.224,1.296 c 1.224,-1.56 2.952,-2.4 5.088,-2.4 3.3600003,0 4.6080003,1.704 4.6080003,3.576 0,1.824 -1.176,3 -4.0320003,4.032 l -2.616,0.936 c -3.288,1.176 -4.752,3.816 -4.704,6.552 l 0.048,2.976 h 13.0320003 v -1.608 H -17.129909 l 0.168,-0.168 c 0,-0.144 -0.024,-0.84 -0.024,-0.984 0,-2.472 1.224,-4.296 3.528,-5.112 l 3.096,-1.128 c 3.5520003,-1.272 4.7760003,-3.12 4.7760003,-5.496 z" />
          </g>
          <g
             transform="translate(1.5,-1.2)"
             id="xxd"
             class="ColorScheme-ButtonHover"
             style="font-style:normal;font-variant:normal;font-weight:300;font-stretch:normal;font-size:24px;line-height:1.25;font-family:'Sinkin Sans';-inkscape-font-specification:'Sinkin Sans, Light';font-variant-ligatures:normal;font-variant-caps:normal;font-variant-numeric:normal;font-feature-settings:normal;text-align:start;letter-spacing:0px;word-spacing:0px;writing-mode:lr-tb;text-anchor:start;fill:currentColor;fill-opacity:1;stroke:none"
             aria-label="3">
            <path
               inkscape:connector-curvature="0"
               id="path945"
               style="font-style:normal;font-variant:normal;font-weight:300;font-stretch:normal;font-size:24px;font-family:'Sinkin Sans';-inkscape-font-specification:'Sinkin Sans, Light';font-variant-ligatures:normal;font-variant-caps:normal;font-variant-numeric:normal;font-feature-settings:normal;text-align:start;writing-mode:lr-tb;text-anchor:start"
               d="m 4.9679812,27.7925 c 0,-2.184 -1.224,-4.128 -4.00799998,-5.04 v -0.072 c 2.32799998,-0.96 3.62399998,-2.592 3.62399998,-4.464 0,-2.4 -1.728,-4.848 -6.648,-4.848 -2.712,0 -4.776,0.888 -6.336,2.568 l 1.248,1.32 c 1.224,-1.392 2.952,-2.256 5.088,-2.256 3.552,0 4.872,1.488 4.872,3.216 0,1.632 -1.152,3.36 -4.488,3.72 -0.504,0.072 -1.992,0.096 -2.616,0.12 v 1.536 c 0.624,0 2.088,0.024 2.736,0.096 3.12,0.312 4.776,1.824 4.776,4.104 0,1.848 -1.512,3.888 -5.28,3.888 -2.256,0 -4.008,-0.96 -5.28,-2.4 l -1.248,1.272 c 1.608,1.752 3.744,2.736 6.552,2.736 5.136,0 7.008,-2.928 7.008,-5.496 z" />
          </g>
          <g
             transform="translate(0.5)"
             id="xxe"
             class="ColorScheme-ButtonHover"
             style="font-style:normal;font-variant:normal;font-weight:300;font-stretch:normal;font-size:24px;line-height:1.25;font-family:'Sinkin Sans';-inkscape-font-specification:'Sinkin Sans, Light';font-variant-ligatures:normal;font-variant-caps:normal;font-variant-numeric:normal;font-feature-settings:normal;text-align:start;letter-spacing:0px;word-spacing:0px;writing-mode:lr-tb;text-anchor:start;fill:currentColor;fill-opacity:1;stroke:none"
             aria-label="4">
            <path
               inkscape:connector-curvature="0"
               id="path948"
               style="font-style:normal;font-variant:normal;font-weight:300;font-stretch:normal;font-size:24px;font-family:'Sinkin Sans';-inkscape-font-specification:'Sinkin Sans, Light';font-variant-ligatures:normal;font-variant-caps:normal;font-variant-numeric:normal;font-feature-settings:normal;text-align:start;writing-mode:lr-tb;text-anchor:start"
               d="m -9.0656247,60.839736 v 7.896 l 0.096,0.168 h -8.7120003 v -0.048 l 1.272,-1.272 6.168,-7.656 1.2480003,-1.704 h 0.048 z m 4.2,8.064 h -2.64 l 0.12,-0.168 v -12.96 h -1.44 l -10.8000003,13.368 v 1.368 h 10.6560003 l -0.096,0.168 v 4.536 h 1.68 v -4.536 l -0.12,-0.168 h 2.64 z" />
          </g>
          <g
             transform="translate(1,-0.8)"
             id="xxf"
             class="ColorScheme-ButtonHover"
             style="font-style:normal;font-variant:normal;font-weight:300;font-stretch:normal;font-size:24px;line-height:1.25;font-family:'Sinkin Sans';-inkscape-font-specification:'Sinkin Sans, Light';font-variant-ligatures:normal;font-variant-caps:normal;font-variant-numeric:normal;font-feature-settings:normal;text-align:start;letter-spacing:0px;word-spacing:0px;writing-mode:lr-tb;text-anchor:start;fill:currentColor;fill-opacity:1;stroke:none"
             aria-label="5">
            <path
               inkscape:connector-curvature="0"
               id="path951"
               style="font-style:normal;font-variant:normal;font-weight:300;font-stretch:normal;font-size:24px;font-family:'Sinkin Sans';-inkscape-font-specification:'Sinkin Sans, Light';font-variant-ligatures:normal;font-variant-caps:normal;font-variant-numeric:normal;font-feature-settings:normal;text-align:start;writing-mode:lr-tb;text-anchor:start"
               d="m -37.104296,101.19654 c 0,-3.408001 -2.208,-6.504001 -6.96,-6.504001 -1.872,0 -3.624,0.552 -4.992,1.752 l -0.048,-0.048 0.456,-2.16 0.576,-4.464 -0.12,-0.168 h 9.696 v -1.608 h -10.992 l -1.08,9.384 1.152,1.128 c 1.296,-1.488 3.144,-2.232 5.352,-2.232 3.672,0 5.208,2.568 5.208,4.920001 0,2.424 -1.608,4.896 -5.448,4.896 -2.304,0 -4.08,-0.912 -5.544,-2.88 l -1.176,1.224 c 1.8,2.376 3.72,3.264 6.72,3.264 5.112,0 7.2,-3.168 7.2,-6.504 z" />
          </g>
          <g
             transform="translate(1,-0.7)"
             id="xxg"
             class="ColorScheme-ButtonHover"
             style="font-style:normal;font-variant:normal;font-weight:300;font-stretch:normal;font-size:24px;line-height:1.25;font-family:'Sinkin Sans';-inkscape-font-specification:'Sinkin Sans, Light';font-variant-ligatures:normal;font-variant-caps:normal;font-variant-numeric:normal;font-feature-settings:normal;text-align:start;letter-spacing:0px;word-spacing:0px;writing-mode:lr-tb;text-anchor:start;fill:currentColor;fill-opacity:1;stroke:none"
             aria-label="6">
            <path
               inkscape:connector-curvature="0"
               id="path954"
               style="font-style:normal;font-variant:normal;font-weight:300;font-stretch:normal;font-size:24px;font-family:'Sinkin Sans';-inkscape-font-specification:'Sinkin Sans, Light';font-variant-ligatures:normal;font-variant-caps:normal;font-variant-numeric:normal;font-feature-settings:normal;text-align:start;writing-mode:lr-tb;text-anchor:start"
               d="m -81.215818,112.70772 c -0.048,2.376 -2.088,4.872 -5.472,4.872 -3.6,0 -5.376,-2.592 -5.328,-4.872 0.024,-2.28 1.992,-4.944 5.472,-4.944 3.672,0 5.352,2.688 5.328,4.944 z m 1.704,-0.024 c 0.048,-3.408 -2.232,-6.504 -6.984,-6.504 -2.52,0 -4.608,1.104 -5.976,3.408 h -0.048 v -0.456 c -0.024,-3.792 1.44,-8.28 5.976,-8.28 2.04,0 3.84,0.744 5.088,2.376 l 1.272,-1.296 c -1.704,-1.967999 -3.792,-2.687999 -6.36,-2.687999 -5.688,0 -7.704,5.591999 -7.704,10.415999 0,5.64 2.544,9.528 7.512,9.528 4.992,0 7.176,-3.264 7.224,-6.504 z" />
          </g>
          <g
             transform="translate(1.2,-0.9)"
             id="xxh"
             class="ColorScheme-ButtonHover"
             style="font-style:normal;font-variant:normal;font-weight:300;font-stretch:normal;font-size:24px;line-height:1.25;font-family:'Sinkin Sans';-inkscape-font-specification:'Sinkin Sans, Light';font-variant-ligatures:normal;font-variant-caps:normal;font-variant-numeric:normal;font-feature-settings:normal;text-align:start;letter-spacing:0px;word-spacing:0px;writing-mode:lr-tb;text-anchor:start;fill:currentColor;fill-opacity:1;stroke:none"
             aria-label="7">
            <path
               inkscape:connector-curvature="0"
               id="path957"
               style="font-style:normal;font-variant:normal;font-weight:300;font-stretch:normal;font-size:24px;font-family:'Sinkin Sans';-inkscape-font-specification:'Sinkin Sans, Light';font-variant-ligatures:normal;font-variant-caps:normal;font-variant-numeric:normal;font-feature-settings:normal;text-align:start;writing-mode:lr-tb;text-anchor:start"
               d="m -123.28009,88.516917 h -13.8 v 1.608 h 11.952 v 0.048 l -1.416,1.584 -3.36,4.512 c -1.848,2.52 -2.472,4.776003 -2.472,8.376003 v 3.312 h 1.68 v -3.168 c 0,-3.264 0.552,-5.448003 2.208,-7.680003 l 5.208,-7.056 z" />
          </g>
          <g
             transform="translate(0.3,-1.1)"
             id="xxi"
             class="ColorScheme-ButtonHover"
             style="font-style:normal;font-variant:normal;font-weight:300;font-stretch:normal;font-size:24px;line-height:1.25;font-family:'Sinkin Sans';-inkscape-font-specification:'Sinkin Sans, Light';font-variant-ligatures:normal;font-variant-caps:normal;font-variant-numeric:normal;font-feature-settings:normal;text-align:start;letter-spacing:0px;word-spacing:0px;writing-mode:lr-tb;text-anchor:start;fill:currentColor;fill-opacity:1;stroke:none"
             aria-label="8">
            <path
               inkscape:connector-curvature="0"
               id="path960"
               style="font-style:normal;font-variant:normal;font-weight:300;font-stretch:normal;font-size:24px;font-family:'Sinkin Sans';-inkscape-font-specification:'Sinkin Sans, Light';font-variant-ligatures:normal;font-variant-caps:normal;font-variant-numeric:normal;font-feature-settings:normal;text-align:start;writing-mode:lr-tb;text-anchor:start"
               d="m -155.5512,71.572292 c 0,1.872 -1.92,4.056 -5.664,4.056 -3.744,0 -5.64,-2.184 -5.64,-4.056 0,-2.28 2.232,-4.176 5.64,-4.176 3.408,0 5.664,1.872 5.664,4.176 z m -0.696,-9.096 c 0,1.656 -1.656,3.6 -4.968,3.6 -3.312,0 -4.944,-1.968 -4.944,-3.6 0,-1.728 1.416,-3.528 4.968,-3.528 3.576,0 4.944,1.8 4.944,3.528 z m 2.448,9.144 c 0,-2.304 -1.296,-3.936 -3.984,-4.944 v -0.048 c 2.184,-1.104 3.312,-2.304 3.312,-4.32 0,-2.448 -1.848,-4.992 -6.792,-4.992 -4.92,0 -6.648,2.544 -6.648,4.992 0,2.016 1.08,3.264 3.288,4.32 v 0.072 c -2.688,0.984 -3.984,2.568 -3.984,4.92 0,2.568 2.256,5.616 7.416,5.616 5.136,0 7.392,-3.048 7.392,-5.616 z" />
          </g>
          <g
             transform="translate(0.9,-1)"
             id="xxj"
             class="ColorScheme-ButtonHover"
             style="font-style:normal;font-variant:normal;font-weight:300;font-stretch:normal;font-size:24px;line-height:1.25;font-family:'Sinkin Sans';-inkscape-font-specification:'Sinkin Sans, Light';font-variant-ligatures:normal;font-variant-caps:normal;font-variant-numeric:normal;font-feature-settings:normal;text-align:start;letter-spacing:0px;word-spacing:0px;writing-mode:lr-tb;text-anchor:start;fill:currentColor;fill-opacity:1;stroke:none"
             aria-label="9">
            <path
               inkscape:connector-curvature="0"
               id="path963"
               style="font-style:normal;font-variant:normal;font-weight:300;font-stretch:normal;font-size:24px;font-family:'Sinkin Sans';-inkscape-font-specification:'Sinkin Sans, Light';font-variant-ligatures:normal;font-variant-caps:normal;font-variant-numeric:normal;font-feature-settings:normal;text-align:start;writing-mode:lr-tb;text-anchor:start"
               d="m -167.67281,20.178716 c 0,2.976 -2.64,5.016 -5.472,5.016 -2.832,0 -5.328,-1.872 -5.328,-4.848 0,-2.976 2.664,-4.944 5.472,-4.944 2.808,0 5.328,1.824 5.328,4.776 z m 2.232,3.12 c 0,-4.848 -1.968,-9.504 -7.536,-9.504 -4.032,0 -7.2,2.376 -7.2,6.624 0,4.08 3.096,6.384 6.984,6.384 2.64,0 4.608,-1.176 5.976,-3.432 h 0.048 v 0.48 c 0.024,3.792 -1.464,8.28 -5.976,8.28 -2.04,0 -3.84,-0.744 -5.112,-2.4 l -1.248,1.296 c 1.704,1.992 3.792,2.712 6.36,2.712 5.688,0 7.704,-5.616 7.704,-10.44 z" />
          </g>
          <g
             transform="translate(1.2,-0.9)"
             id="xxk"
             class="ColorScheme-ButtonHover"
             style="font-style:normal;font-variant:normal;font-weight:300;font-stretch:normal;font-size:24px;line-height:1.25;font-family:'Sinkin Sans';-inkscape-font-specification:'Sinkin Sans, Light';font-variant-ligatures:normal;font-variant-caps:normal;font-variant-numeric:normal;font-feature-settings:normal;text-align:start;letter-spacing:0px;word-spacing:0px;writing-mode:lr-tb;text-anchor:start;fill:currentColor;fill-opacity:1;stroke:none"
             aria-label="10">
            <path
               inkscape:connector-curvature="0"
               id="path966"
               style="font-style:normal;font-variant:normal;font-weight:300;font-stretch:normal;font-size:24px;font-family:'Sinkin Sans';-inkscape-font-specification:'Sinkin Sans, Light';font-variant-ligatures:normal;font-variant-caps:normal;font-variant-numeric:normal;font-feature-settings:normal;text-align:start;letter-spacing:-0.69999999px;writing-mode:lr-tb;text-anchor:start"
               d="m -167.74592,-29.150958 h -1.44 l -4.584,4.584 0.984,1.008 2.232,-2.256 1.224,-1.584 h 0.048 l -0.144,1.8 v 15.8880005 h 1.68 z" />
            <path
               inkscape:connector-curvature="0"
               id="path968"
               style="font-style:normal;font-variant:normal;font-weight:300;font-stretch:normal;font-size:24px;font-family:'Sinkin Sans';-inkscape-font-specification:'Sinkin Sans, Light';font-variant-ligatures:normal;font-variant-caps:normal;font-variant-numeric:normal;font-feature-settings:normal;text-align:start;letter-spacing:-0.69999999px;writing-mode:lr-tb;text-anchor:start"
               d="m -151.59567,-19.310958 c 0,4.608 -1.464,8.232 -5.712,8.232 -4.248,0 -5.664,-3.816 -5.664,-8.232 0,-4.488 1.464,-8.472 5.688,-8.472 4.464,0 5.688,4.128 5.688,8.472 z m 1.752,0 c 0,-6.024 -2.688,-10.08 -7.44,-10.08 -4.68,0 -7.44,4.08 -7.44,10.08 0,6 2.592,9.8400005 7.44,9.8400005 4.872,0 7.44,-3.8400005 7.44,-9.8400005 z" />
          </g>
          <g
             transform="translate(0.7,-0.7)"
             id="xxl"
             class="ColorScheme-ButtonHover"
             style="font-style:normal;font-variant:normal;font-weight:300;font-stretch:normal;font-size:24px;line-height:1.25;font-family:'Sinkin Sans';-inkscape-font-specification:'Sinkin Sans, Light';font-variant-ligatures:normal;font-variant-caps:normal;font-variant-numeric:normal;font-feature-settings:normal;text-align:start;letter-spacing:0px;word-spacing:0px;writing-mode:lr-tb;text-anchor:start;fill:currentColor;fill-opacity:1;stroke:none"
             aria-label="11">
            <path
               inkscape:connector-curvature="0"
               id="path971"
               style="font-style:normal;font-variant:normal;font-weight:300;font-stretch:normal;font-size:24px;font-family:'Sinkin Sans';-inkscape-font-specification:'Sinkin Sans, Light';font-variant-ligatures:normal;font-variant-caps:normal;font-variant-numeric:normal;font-feature-settings:normal;text-align:start;letter-spacing:-0.69999999px;writing-mode:lr-tb;text-anchor:start"
               d="m -131.18831,-60.609636 h -1.44 l -4.584,4.584 0.984,1.008 2.232,-2.256 1.224,-1.584 h 0.048 l -0.144,1.8 v 15.888 h 1.68 z" />
            <path
               inkscape:connector-curvature="0"
               id="path973"
               style="font-style:normal;font-variant:normal;font-weight:300;font-stretch:normal;font-size:24px;font-family:'Sinkin Sans';-inkscape-font-specification:'Sinkin Sans, Light';font-variant-ligatures:normal;font-variant-caps:normal;font-variant-numeric:normal;font-feature-settings:normal;text-align:start;letter-spacing:-0.69999999px;writing-mode:lr-tb;text-anchor:start"
               d="m -122.98206,-60.609636 h -1.44 l -4.584,4.584 0.984,1.008 2.232,-2.256 1.224,-1.584 h 0.048 l -0.144,1.8 v 15.888 h 1.68 z" />
          </g>
          <g
             transform="translate(1.5,-1.1)"
             id="xxa"
             class="ColorScheme-ButtonHover"
             style="font-style:normal;font-variant:normal;font-weight:300;font-stretch:normal;font-size:24px;line-height:1.25;font-family:'Sinkin Sans';-inkscape-font-specification:'Sinkin Sans, Light';font-variant-ligatures:normal;font-variant-caps:normal;font-variant-numeric:normal;font-feature-settings:normal;text-align:start;letter-spacing:0px;word-spacing:0px;writing-mode:lr-tb;text-anchor:start;fill:currentColor;fill-opacity:1;stroke:none"
             aria-label="12">
            <path
               inkscape:connector-curvature="0"
               id="path880"
               style="font-style:normal;font-variant:normal;font-weight:300;font-stretch:normal;font-size:24px;font-family:'Sinkin Sans';-inkscape-font-specification:'Sinkin Sans, Light';font-variant-ligatures:normal;font-variant-caps:normal;font-variant-numeric:normal;font-feature-settings:normal;text-align:start;letter-spacing:-0.69999999px;writing-mode:lr-tb;text-anchor:start"
               d="m -93.005476,-71.581289 h -1.44 l -4.584,4.584 0.984,1.008 2.232,-2.256 1.224,-1.584 h 0.048 l -0.144,1.8 v 15.888 h 1.68 z" />
            <path
               inkscape:connector-curvature="0"
               id="path882"
               style="font-style:normal;font-variant:normal;font-weight:300;font-stretch:normal;font-size:24px;font-family:'Sinkin Sans';-inkscape-font-specification:'Sinkin Sans, Light';font-variant-ligatures:normal;font-variant-caps:normal;font-variant-numeric:normal;font-feature-settings:normal;text-align:start;letter-spacing:-0.69999999px;writing-mode:lr-tb;text-anchor:start"
               d="m -76.879226,-66.637289 c 0,-2.52 -1.752,-5.184 -6.36,-5.184 -2.64,0 -4.776,0.96 -6.312,2.712 l 1.224,1.296 c 1.224,-1.56 2.952,-2.4 5.088,-2.4 3.36,0 4.608,1.704 4.608,3.576 0,1.824 -1.176,3 -4.032,4.032 l -2.616,0.936 c -3.288,1.176 -4.752,3.816 -4.704,6.552 l 0.048,2.976 h 13.032 v -1.608 h -11.52 l 0.168,-0.168 c 0,-0.144 -0.024,-0.84 -0.024,-0.984 0,-2.472 1.224,-4.296 3.528,-5.112 l 3.096,-1.128 c 3.552,-1.272 4.776,-3.12 4.776,-5.496 z" />
          </g>
        </g>
      </g>
    </g>
    <g
       id="HourHand"
       transform="translate(-0.43052133)">
      <rect
         y="21.878765"
         x="189.04533"
         height="112"
         width="12"
         id="rect918"
         style="opacity:1;fill:none;fill-opacity:1;stroke:none;stroke-width:1.15255499;stroke-linecap:round;stroke-miterlimit:4;stroke-dasharray:none" />
      <rect
         style="opacity:1;fill:currentColor;fill-opacity:1;stroke:none;stroke-width:0.56238925;stroke-linecap:round;stroke-miterlimit:4;stroke-dasharray:none"
         id="hhour"
         class="ColorScheme-Text"
         width="5"
         height="64"
         x="192.54533"
         y="25.221239" />
    </g>
    <g
       id="MinuteHand">
      <rect
         style="opacity:0.1;fill:none;fill-opacity:1;stroke:none;stroke-width:1.15255499;stroke-linecap:round;stroke-miterlimit:4;stroke-dasharray:none"
         id="rect928"
         width="12"
         height="112"
         x="251.1364"
         y="21.829014" />
      <rect
         y="25.215355"
         x="254.6364"
         height="93.77668"
         width="5"
         id="mminute"
         class="ColorScheme-Text"
         style="opacity:1;fill:currentColor;fill-opacity:1;stroke:none;stroke-width:0.68076068;stroke-linecap:round;stroke-miterlimit:4;stroke-dasharray:none" />
    </g>
    <g
       id="SecondHand">
      <rect
         y="22.234913"
         x="304.22986"
         height="112"
         width="12"
         id="rect962"
         style="opacity:0.1;fill:none;fill-opacity:1;stroke:none;stroke-width:1.15255499;stroke-linecap:round;stroke-miterlimit:4;stroke-dasharray:none" />
      <rect
         style="opacity:1;fill:currentColor;fill-opacity:1;stroke:none;stroke-width:0.44464821;stroke-linecap:round;stroke-miterlimit:4;stroke-dasharray:none"
         id="ssecond"
         class="ColorScheme-ButtonHover"
         width="2"
         height="100.0182"
         x="309.22986"
         y="25.307823" />
    </g>
    <g
       id="HandCenterScrew">
      <rect
         y="-19.561764"
         x="348.89597"
         height="16"
         width="16"
         id="rect986"
         style="opacity:0.5;fill:none;fill-opacity:0.99090911;stroke:none;stroke-width:1.97093165;stroke-linecap:round;stroke-miterlimit:4;stroke-dasharray:none" />
      <circle
         r="6.5"
         cy="-11.561764"
         cx="356.89597"
         id="sscrew"
         class="ColorScheme-Text"
         style="opacity:1;fill:currentColor;fill-opacity:1;stroke:none;stroke-width:0.93893582;stroke-linecap:round;stroke-miterlimit:4;stroke-dasharray:none" />
    </g>
  </g>
</svg>
