<?xml version="1.0" encoding="UTF-8" standalone="no"?>
<!-- Created with Inkscape (http://www.inkscape.org/) -->

<svg
   xmlns:dc="http://purl.org/dc/elements/1.1/"
   xmlns:cc="http://creativecommons.org/ns#"
   xmlns:rdf="http://www.w3.org/1999/02/22-rdf-syntax-ns#"
   xmlns:svg="http://www.w3.org/2000/svg"
   xmlns="http://www.w3.org/2000/svg"
   xmlns:sodipodi="http://sodipodi.sourceforge.net/DTD/sodipodi-0.dtd"
   xmlns:inkscape="http://www.inkscape.org/namespaces/inkscape"
   width="89.143837"
   height="89.106758"
   viewBox="0 0 89.143837 89.106762"
   version="1.1"
   id="svg8"
   inkscape:version="0.92.3 (2405546, 2018-03-11)"
   sodipodi:docname="slider.svg">
  <sodipodi:namedview
     id="base"
     pagecolor="#ffffff"
     bordercolor="#666666"
     borderopacity="1.0"
     inkscape:pageopacity="0.0"
     inkscape:pageshadow="2"
     inkscape:zoom="21.175578"
     inkscape:cx="29.767663"
     inkscape:cy="51.368022"
     inkscape:document-units="px"
     inkscape:current-layer="layer1"
     showgrid="false"
     units="px"
     inkscape:pagecheckerboard="true"
     inkscape:showpageshadow="false"
     inkscape:window-width="1848"
     inkscape:window-height="967"
     inkscape:window-x="72"
     inkscape:window-y="30"
     inkscape:window-maximized="1"
     inkscape:snap-bbox="true"
     inkscape:snap-nodes="false"
     inkscape:bbox-paths="true"
     inkscape:bbox-nodes="true"
     inkscape:snap-global="true"
     fit-margin-top="10"
     fit-margin-left="10"
     fit-margin-right="10"
     fit-margin-bottom="10" />
  <defs
     id="defs2" />
  <style
     type="text/css"
     id="current-color-scheme">
      .ColorScheme-Text {
      }
      .ColorScheme-Background{
      }
      .ColorScheme-Highlight{
      }
      .ColorScheme-ViewText {
      }
      .ColorScheme-ViewBackground{
      }
      .ColorScheme-ViewHover {
      }
      .ColorScheme-ViewFocus{
      }
      .ColorScheme-ButtonText {
      }
      .ColorScheme-ButtonBackground{
      }
      .ColorScheme-ButtonHover {
      }
      .ColorScheme-ButtonFocus{
      }
  </style>
  <metadata
     id="metadata5">
    <rdf:RDF>
      <cc:Work
         rdf:about="">
        <dc:format>image/svg+xml</dc:format>
        <dc:type
           rdf:resource="http://purl.org/dc/dcmitype/StillImage" />
        <dc:title />
      </cc:Work>
    </rdf:RDF>
  </metadata>
  <g
     id="layer1"
     inkscape:groupmode="layer"
     inkscape:label="Layer 1"
     transform="translate(-82.984461,-605.4657)">
    <g
       id="groove-topleft"
       transform="translate(2.6445559,9.4448425)">
      <rect
         style="fill:none;stroke-width:0.03392507"
         y="610.52344"
         x="98.215981"
         height="3"
         width="3"
         id="rect3795" />
      <path
         inkscape:connector-curvature="0"
         class="ColorScheme-Text"
         id="QQA"
         d="m 101.2168,612.02344 a 2.9999998,2.9999998 0 0 0 -2.597659,1.5 h 2.597659 z"
         style="opacity:0.25;fill:currentColor;stroke-width:0.03392507" />
    </g>
    <g
       id="groove-left"
       transform="translate(2.6445559,9.4448425)">
      <rect
         id="rect3803"
         width="3"
         height="3"
         x="98.215981"
         y="613.52344"
         style="fill:none;stroke-width:0.03392507" />
      <path
         inkscape:connector-curvature="0"
         class="ColorScheme-Text"
         id="QQD"
         d="m 98.619141,613.52344 a 2.9999998,2.9999998 0 0 0 -0.402344,1.57226 2.9999998,2.9999998 0 0 0 0.402344,1.42774 h 2.597659 v -1.5 -1.5 z"
         style="opacity:0.25;fill:currentColor;stroke-width:0.03392507" />
    </g>
    <g
       id="groove-bottomleft"
       transform="translate(2.6445559,9.4448425)">
      <rect
         id="rect3809"
         width="3"
         height="3"
         x="98.215981"
         y="616.52344"
         style="fill:none;stroke-width:0.03392507" />
      <path
         inkscape:connector-curvature="0"
         class="ColorScheme-Text"
         id="QQF"
         d="m 98.619141,616.52344 a 2.9999998,2.9999998 0 0 0 2.597659,1.5 v -1.5 z"
         style="opacity:0.25;fill:currentColor;stroke-width:0.03392507" />
    </g>
    <g
       id="groove-topright"
       transform="matrix(-1,0,0,1,208.07816,9.4447765)">
      <rect
         id="rect3815"
         width="3"
         height="3"
         x="98.215981"
         y="610.52344"
         style="fill:none;stroke-width:0.03392507" />
      <path
         style="opacity:0.25;fill:currentColor;stroke-width:0.03392507"
         d="m 101.2168,612.02344 a 2.9999998,2.9999998 0 0 0 -2.597659,1.5 h 2.597659 z"
         class="ColorScheme-Text"
         id="QQC"
         inkscape:connector-curvature="0" />
    </g>
    <g
       id="groove-right"
       transform="matrix(-1,0,0,1,208.07734,9.444779)">
      <rect
         style="fill:none;stroke-width:0.03392507"
         y="613.52344"
         x="98.215981"
         height="3"
         width="3"
         id="rect3821" />
      <path
         style="opacity:0.25;fill:currentColor;stroke-width:0.03392507"
         d="m 98.619141,613.52344 a 2.9999998,2.9999998 0 0 0 -0.402344,1.57226 2.9999998,2.9999998 0 0 0 0.402344,1.42774 h 2.597659 v -1.5 -1.5 z"
         class="ColorScheme-Text"
         id="QQE"
         inkscape:connector-curvature="0" />
    </g>
    <g
       id="groove-bottomright"
       transform="matrix(-1,0,0,1,208.07734,9.4447815)">
      <rect
         style="fill:none;stroke-width:0.03392507"
         y="616.52344"
         x="98.215981"
         height="3"
         width="3"
         id="rect3827" />
      <path
         style="opacity:0.25;fill:currentColor;stroke-width:0.03392507"
         d="m 98.619141,616.52344 a 2.9999998,2.9999998 0 0 0 2.597659,1.5 v -1.5 z"
         class="ColorScheme-Text"
         id="QQH"
         inkscape:connector-curvature="0" />
    </g>
    <g
       id="groove-top"
       transform="translate(1.1049396,11.187582)">
      <rect
         id="rect3835"
         width="3"
         height="3"
         x="102.75642"
         y="608.7807"
         style="fill:none;stroke-width:0.03392507" />
      <rect
         id="QQB"
         class="ColorScheme-Text"
         width="3"
         height="1.5"
         x="102.75642"
         y="610.2807"
         style="opacity:0.25;fill:currentColor;stroke-width:0.02398865" />
    </g>
    <g
       transform="matrix(1,0,0,-1,1.1041201,1237.7489)"
       id="groove-bottom">
      <rect
         style="fill:none;stroke-width:0.03392507"
         y="608.7807"
         x="102.75642"
         height="3"
         width="3"
         id="rect3841" />
      <rect
         style="opacity:0.25;fill:currentColor;stroke-width:0.02398865"
         class="ColorScheme-Text"
         y="610.2807"
         x="102.75642"
         height="1.5"
         width="3"
         id="QQG" />
    </g>
    <rect
       style="opacity:0.25;fill:currentColor;stroke-width:0.03392507"
       class="ColorScheme-Text"
       y="622.9682"
       x="103.86053"
       height="3"
       width="3"
       id="groove-center" />
    <g
       transform="translate(25.4012,9.4448425)"
       id="groove-highlight-topleft">
      <rect
         id="rect93"
         width="3"
         height="3"
         x="98.215981"
         y="610.52344"
         style="fill:none;stroke-width:0.03392507" />
      <path
         style="fill:currentColor;stroke-width:0.03392507"
         d="m 101.2168,612.02344 a 2.9999998,2.9999998 0 0 0 -2.597659,1.5 h 2.597659 z"
         id="AAA"
         class="ColorScheme-ButtonHover"
         inkscape:connector-curvature="0" />
    </g>
    <g
       transform="translate(25.4012,9.4448425)"
       id="groove-highlight-left">
      <rect
         style="fill:none;stroke-width:0.03392507"
         y="613.52344"
         x="98.215981"
         height="3"
         width="3"
         id="rect99" />
      <path
         style="fill:currentColor;stroke-width:0.03392507"
         d="m 98.619141,613.52344 a 2.9999998,2.9999998 0 0 0 -0.402344,1.57226 2.9999998,2.9999998 0 0 0 0.402344,1.42774 h 2.597659 v -1.5 -1.5 z"
         id="AAD"
         class="ColorScheme-ButtonHover"
         inkscape:connector-curvature="0" />
    </g>
    <g
       transform="translate(25.4012,9.4448425)"
       id="groove-highlight-bottomleft">
      <rect
         style="fill:none;stroke-width:0.03392507"
         y="616.52344"
         x="98.215981"
         height="3"
         width="3"
         id="rect105" />
      <path
         style="fill:currentColor;stroke-width:0.03392507"
         d="m 98.619141,616.52344 a 2.9999998,2.9999998 0 0 0 2.597659,1.5 v -1.5 z"
         id="AAF"
         class="ColorScheme-ButtonHover"
         inkscape:connector-curvature="0" />
    </g>
    <g
       transform="matrix(-1,0,0,1,230.8348,9.4447765)"
       id="groove-highlight-topright">
      <rect
         style="fill:none;stroke-width:0.03392507"
         y="610.52344"
         x="98.215981"
         height="3"
         width="3"
         id="rect111" />
      <path
         inkscape:connector-curvature="0"
         id="AAC"
         class="ColorScheme-ButtonHover"
         d="m 101.2168,612.02344 a 2.9999998,2.9999998 0 0 0 -2.597659,1.5 h 2.597659 z"
         style="fill:currentColor;stroke-width:0.03392507" />
    </g>
    <g
       transform="matrix(-1,0,0,1,230.83398,9.444779)"
       id="groove-highlight-right">
      <rect
         id="rect117"
         width="3"
         height="3"
         x="98.215981"
         y="613.52344"
         style="fill:none;stroke-width:0.03392507" />
      <path
         inkscape:connector-curvature="0"
         id="AAE"
         class="ColorScheme-ButtonHover"
         d="m 98.619141,613.52344 a 2.9999998,2.9999998 0 0 0 -0.402344,1.57226 2.9999998,2.9999998 0 0 0 0.402344,1.42774 h 2.597659 v -1.5 -1.5 z"
         style="fill:currentColor;stroke-width:0.03392507" />
    </g>
    <g
       transform="matrix(-1,0,0,1,230.83398,9.4447815)"
       id="groove-highlight-bottomright">
      <rect
         id="rect123"
         width="3"
         height="3"
         x="98.215981"
         y="616.52344"
         style="fill:none;stroke-width:0.03392507" />
      <path
         inkscape:connector-curvature="0"
         id="AAH"
         class="ColorScheme-ButtonHover"
         d="m 98.619141,616.52344 a 2.9999998,2.9999998 0 0 0 2.597659,1.5 v -1.5 z"
         style="fill:currentColor;stroke-width:0.03392507" />
    </g>
    <g
       transform="translate(23.861583,11.187582)"
       id="groove-highlight-top">
      <rect
         style="fill:none;stroke-width:0.03392507"
         y="608.7807"
         x="102.75642"
         height="3"
         width="3"
         id="rect129" />
      <rect
         style="fill:currentColor;stroke-width:0.02398865"
         y="610.2807"
         x="102.75642"
         height="1.5"
         width="3"
         class="ColorScheme-ButtonHover"
         id="AAB" />
    </g>
    <g
       id="groove-highlight-bottom"
       transform="matrix(1,0,0,-1,23.860764,1237.7489)">
      <rect
         id="rect135"
         width="3"
         height="3"
         x="102.75642"
         y="608.7807"
         style="fill:none;stroke-width:0.03392507" />
      <rect
         id="AAG"
         width="3"
         height="1.5"
         x="102.75642"
         y="610.2807"
         class="ColorScheme-ButtonHover"
         style="fill:currentColor;stroke-width:0.02398865" />
    </g>
    <rect
       id="groove-highlight-center"
       width="3"
       height="3"
       x="126.61719"
       y="622.9682"
       class="ColorScheme-ButtonHover"
       style="fill:currentColor;stroke-width:0.03392507" />
    <circle
       style="fill:#ff0000;stroke-width:3.17457366"
       id="hint-handle-size"
       cx="153.1283"
       cy="624.4657"
       r="9" />
    <g
       id="horizontal-slider-handle"
       transform="translate(-23.045416,-1.8889685)">
      <rect
         y="638.46143"
         x="116.02988"
         height="24"
         width="24"
         id="rect345"
         style="fill:none;stroke-width:0.80683511" />
      <circle
         style="fill:currentColor;stroke-width:3.17457366"
         id="KKK"
         class="ColorScheme-ButtonHover"
         cx="128.02988"
         cy="650.46143"
         r="9" />
    </g>
    <g
       id="horizontal-slider-hover"
       transform="translate(-24.263144,0.18891286)">
      <rect
         style="fill:none;stroke-width:0.80683511"
         id="rect130"
         width="24"
         height="24"
         x="141.2476"
         y="636.38354" />
      <circle
         r="11.086157"
         cy="648.38354"
         cx="153.2476"
         class="ColorScheme-ButtonHover"
         id="WWW"
         style="fill:currentColor;stroke-width:4.28624249" />
    </g>
    <g
       transform="translate(-23.045416,22.111032)"
       id="vertical-slider-handle">
      <rect
         style="fill:none;stroke-width:0.80683511"
         id="rect73"
         width="24"
         height="24"
         x="116.02988"
         y="638.46143" />
      <circle
         r="9"
         cy="650.46143"
         cx="128.02988"
         class="ColorScheme-ButtonHover"
         id="circle75"
         style="fill:currentColor;stroke-width:3.17457366" />
    </g>
    <g
       transform="translate(-24.263144,24.188913)"
       id="vertical-slider-hover">
      <rect
         y="636.38354"
         x="141.2476"
         height="24"
         width="24"
         id="rect79"
         style="fill:none;stroke-width:0.80683511" />
      <circle
         style="fill:currentColor;stroke-width:3.86630154"
         id="circle81"
         class="ColorScheme-ButtonHover"
         cx="153.2476"
         cy="648.38354"
         r="10" />
    </g>
  </g>
</svg>
